<svg xmlns="http://www.w3.org/2000/svg" xmlns:xlink="http://www.w3.org/1999/xlink" width="449" height="638" viewBox="0 0 449 638"><defs><style>.a,.e,.j{fill:#fff;}.b{font-size:28px;}.b,.c,.j{font-family:Poppins-Bold, Poppins;font-weight:700;}.c,.d,.j{font-size:18px;}.d{fill:#727272;}.d,.g{font-family:Poppins-Regular, Poppins;}.e,.f{stroke:#000;}.f,.l{fill:none;}.g{fill:#161615;font-size:10px;}.h{clip-path:url(#a);}.i{fill:#ffcc48;}.j{letter-spacing:0.2em;}.k{stroke:none;}</style><clipPath id="a"><rect width="383" height="52" transform="translate(1169 755)"/></clipPath></defs><g transform="translate(-1136 -202)"><rect className="a" width="449" height="638" transform="translate(1136 202)"/><text className="b" transform="translate(1169 230)"><tspan x="0" y="29">Lorem ipsum</tspan><tspan x="0" y="67">Lorem ipsum lorem ipsum</tspan></text><text className="c" transform="translate(1169 351)"><tspan x="0" y="19">Zostaw kontakt, zadzwonimy do Ciebie</tspan></text><text className="d" transform="translate(1169 314)"><tspan x="0" y="19">consectetur adipiscing elit. Ut auctor arcu </tspan></text><g className="e" transform="translate(1169 411)"><rect className="k" width="383" height="52"/><rect className="l" x="0.5" y="0.5" width="382" height="51"/></g><g className="e" transform="translate(1169 483)"><rect className="k" width="383" height="52"/><rect className="l" x="0.5" y="0.5" width="382" height="51"/></g><g className="e" transform="translate(1169 555)"><rect className="k" width="383" height="52"/><rect className="l" x="0.5" y="0.5" width="382" height="51"/></g><g className="e" transform="translate(1169 627)"><rect className="k" width="383" height="52"/><rect className="l" x="0.5" y="0.5" width="382" height="51"/></g><g transform="translate(0 -8)"><g className="f" transform="translate(1169 707)"><rect className="k" width="20" height="20"/><rect className="l" x="0.5" y="0.5" width="19" height="19"/></g><text className="g" transform="translate(1204 707)"><tspan x="0" y="11">Wyrażam dobrowolną zgodę na przetwarzanie moich danych </tspan><tspan x="0" y="27">osobowych więcej...</tspan></text></g><text className="d" transform="translate(1189 444)"><tspan x="0" y="0">Imię i nazwisko</tspan></text><text className="d" transform="translate(1189 516)"><tspan x="0" y="0">Telefon</tspan></text><text className="d" transform="translate(1189 588)"><tspan x="0" y="0">Email</tspan></text><text className="d" transform="translate(1189 660)"><tspan x="0" y="0">Lorem ipsum lorem ipsum</tspan></text><g transform="translate(1169 755)"><g className="h" transform="translate(-1169 -755)"><rect width="383" height="52" transform="translate(1169 755)"/><path className="i" d="M0,0H48.593V66.041H0Z" transform="translate(1106 750)"/><text className="j" transform="translate(1320 788)"><tspan x="0" y="0">WYŚLIJ</tspan></text></g></g></g></svg>