<?xml version="1.0" encoding="UTF-8" standalone="no"?><!DOCTYPE svg PUBLIC "-//W3C//DTD SVG 1.1//EN" "http://www.w3.org/Graphics/SVG/1.1/DTD/svg11.dtd"><svg width="100%" height="100%" viewBox="0 0 28 27" version="1.1" xmlns="http://www.w3.org/2000/svg" xmlns:xlink="http://www.w3.org/1999/xlink" xml:space="preserve" xmlns:serif="http://www.serif.com/" style="fill-rule:evenodd;clip-rule:evenodd;stroke-linejoin:round;stroke-miterlimit:2;"><g id="Group_143"><path id="Rectangle_99" d="M28,0l-28,0l0,27l28,0l0,-27Zm-9.757,14.941l0.47,-3.061l-2.938,0l-0,-1.986c-0.004,-0.045 -0.006,-0.091 -0.006,-0.136c-0,-0.84 0.691,-1.531 1.531,-1.531c0.067,-0 0.134,0.004 0.201,0.013l1.335,0l-0,-2.606c-0.783,-0.127 -1.575,-0.196 -2.368,-0.207c-2.419,0 -4,1.466 -4,4.12l-0,2.333l-2.691,0l-0,3.061l2.691,0l-0,7.4l3.307,0l-0,-7.4l2.468,0Z" style="fill:#fff9f9;"/></g></svg>